<svg width="512" height="512" viewBox="0 0 512 512" fill="none" xmlns="http://www.w3.org/2000/svg" role="img" aria-label="Parton monochrome symbol">
  <path d="M64 92C64 82.059 72.059 74 82 74H274C319.474 74 356.326 110.852 356.326 156.326C356.326 173.466 370.22 187.36 387.36 187.36H430C439.941 187.36 448 195.419 448 205.36C448 215.301 439.941 223.36 430 223.36H387.36C350.34 223.36 320.326 193.346 320.326 156.326C320.326 130.734 299.592 110 274 110H82C72.059 110 64 101.941 64 92Z" fill="currentColor"/>
  <path d="M64 238C64 228.059 72.059 220 82 220H262C291.823 220 316 244.177 316 274C316 286.15 325.85 296 338 296H430C439.941 296 448 304.059 448 314C448 323.941 439.941 332 430 332H338C305.968 332 280 306.032 280 274C280 264.059 271.941 256 262 256H82C72.059 256 64 247.941 64 238Z" fill="currentColor" fill-opacity="0.8"/>
  <path d="M64 384C64 374.059 72.059 366 82 366H274C299.592 366 320.326 345.266 320.326 319.674C320.326 282.654 350.34 252.64 387.36 252.64H430C439.941 252.64 448 260.699 448 270.64C448 280.581 439.941 288.64 430 288.64H387.36C370.22 288.64 356.326 302.534 356.326 319.674C356.326 365.148 319.474 402 274 402H82C72.059 402 64 393.941 64 384Z" fill="currentColor" fill-opacity="0.6"/>
</svg>
